<svg width="99" height="80" viewBox="0 0 99 80" fill="none" xmlns="http://www.w3.org/2000/svg">
<g filter="url(#filter0_d_1_291)">
<rect x="16" y="12" width="67" height="48" rx="24" fill="#4A5662"/>
<path d="M35.9424 31.991C36.1331 32.3203 36.3454 32.7233 36.5794 33.2C36.8134 33.6767 37.0517 34.1793 37.2944 34.708C37.5371 35.228 37.7754 35.761 38.0094 36.307C38.2521 36.8443 38.4731 37.3427 38.6724 37.802C38.8717 37.3427 39.0884 36.8443 39.3224 36.307C39.5564 35.761 39.7947 35.228 40.0374 34.708C40.2801 34.1793 40.5184 33.6767 40.7524 33.2C40.9864 32.7233 41.1987 32.3203 41.3894 31.991H42.8714C42.9494 32.6497 43.0231 33.3517 43.0924 34.097C43.1617 34.8337 43.2224 35.592 43.2744 36.372C43.3351 37.1433 43.3871 37.9233 43.4304 38.712C43.4824 39.492 43.5257 40.2547 43.5604 41H41.9484C41.9137 39.9513 41.8704 38.8723 41.8184 37.763C41.7751 36.6537 41.7057 35.579 41.6104 34.539C41.5151 34.7383 41.4024 34.9767 41.2724 35.254C41.1424 35.5313 41.0037 35.8347 40.8564 36.164C40.7091 36.4847 40.5574 36.8183 40.4014 37.165C40.2541 37.5117 40.1067 37.8497 39.9594 38.179C39.8207 38.4997 39.6907 38.803 39.5694 39.089C39.4481 39.3663 39.3441 39.6047 39.2574 39.804H38.0354C37.9487 39.6047 37.8447 39.362 37.7234 39.076C37.6021 38.79 37.4677 38.4867 37.3204 38.166C37.1817 37.8367 37.0344 37.4987 36.8784 37.152C36.7311 36.8053 36.5837 36.4717 36.4364 36.151C36.2891 35.8303 36.1504 35.5313 36.0204 35.254C35.8904 34.968 35.7777 34.7297 35.6824 34.539C35.5871 35.579 35.5134 36.6537 35.4614 37.763C35.4181 38.8723 35.3791 39.9513 35.3444 41H33.7324C33.7671 40.2547 33.8061 39.4833 33.8494 38.686C33.9014 37.8887 33.9534 37.1 34.0054 36.32C34.0661 35.5313 34.1311 34.7687 34.2004 34.032C34.2697 33.2953 34.3434 32.615 34.4214 31.991H35.9424ZM45.0136 37.633C45.0136 37.035 45.1003 36.5107 45.2736 36.06C45.4556 35.6093 45.694 35.2367 45.9886 34.942C46.2833 34.6387 46.6213 34.4133 47.0026 34.266C47.384 34.11 47.774 34.032 48.1726 34.032C49.1086 34.032 49.8366 34.3223 50.3566 34.903C50.8853 35.4837 51.1496 36.3503 51.1496 37.503C51.1496 37.5897 51.1453 37.6893 51.1366 37.802C51.1366 37.906 51.1323 38.0013 51.1236 38.088H46.6386C46.682 38.634 46.8726 39.0587 47.2106 39.362C47.5573 39.6567 48.0556 39.804 48.7056 39.804C49.087 39.804 49.4336 39.7693 49.7456 39.7C50.0663 39.6307 50.3176 39.557 50.4996 39.479L50.7076 40.766C50.621 40.8093 50.4996 40.857 50.3436 40.909C50.1963 40.9523 50.023 40.9913 49.8236 41.026C49.633 41.0693 49.425 41.104 49.1996 41.13C48.9743 41.156 48.7446 41.169 48.5106 41.169C47.9126 41.169 47.3926 41.0823 46.9506 40.909C46.5086 40.727 46.1446 40.48 45.8586 40.168C45.5726 39.8473 45.3603 39.4747 45.2216 39.05C45.083 38.6167 45.0136 38.1443 45.0136 37.633ZM49.5766 36.931C49.5766 36.7143 49.5463 36.5107 49.4856 36.32C49.425 36.1207 49.334 35.9517 49.2126 35.813C49.1 35.6657 48.957 35.553 48.7836 35.475C48.619 35.3883 48.4196 35.345 48.1856 35.345C47.943 35.345 47.7306 35.3927 47.5486 35.488C47.3666 35.5747 47.2106 35.6917 47.0806 35.839C46.9593 35.9863 46.864 36.1553 46.7946 36.346C46.7253 36.5367 46.6776 36.7317 46.6516 36.931H49.5766ZM52.8174 34.422C53.1207 34.3353 53.5151 34.253 54.0004 34.175C54.4857 34.097 55.0231 34.058 55.6124 34.058C56.1671 34.058 56.6307 34.136 57.0034 34.292C57.3761 34.4393 57.6707 34.6517 57.8874 34.929C58.1127 35.1977 58.2687 35.527 58.3554 35.917C58.4507 36.2983 58.4984 36.7187 58.4984 37.178V41H56.9254V37.425C56.9254 37.061 56.8994 36.7533 56.8474 36.502C56.8041 36.242 56.7261 36.034 56.6134 35.878C56.5094 35.7133 56.3621 35.5963 56.1714 35.527C55.9894 35.449 55.7641 35.41 55.4954 35.41C55.2961 35.41 55.0881 35.423 54.8714 35.449C54.6547 35.475 54.4944 35.4967 54.3904 35.514V41H52.8174V34.422ZM65.9989 40.792C65.6956 40.87 65.3012 40.948 64.8159 41.026C64.3306 41.1127 63.7976 41.156 63.2169 41.156C62.6709 41.156 62.2116 41.078 61.8389 40.922C61.4749 40.766 61.1802 40.5493 60.9549 40.272C60.7382 39.9947 60.5822 39.6653 60.4869 39.284C60.3916 38.894 60.3439 38.4693 60.3439 38.01V34.201H61.9169V37.763C61.9169 38.491 62.0209 39.011 62.2289 39.323C62.4456 39.635 62.8182 39.791 63.3469 39.791C63.5376 39.791 63.7369 39.7823 63.9449 39.765C64.1616 39.7477 64.3219 39.726 64.4259 39.7V34.201H65.9989V40.792Z" fill="white"/>
</g>
<defs>
<filter id="filter0_d_1_291" x="0" y="0" width="99" height="80" filterUnits="userSpaceOnUse" color-interpolation-filters="sRGB">
<feFlood flood-opacity="0" result="BackgroundImageFix"/>
<feColorMatrix in="SourceAlpha" type="matrix" values="0 0 0 0 0 0 0 0 0 0 0 0 0 0 0 0 0 0 127 0" result="hardAlpha"/>
<feOffset dy="4"/>
<feGaussianBlur stdDeviation="8"/>
<feColorMatrix type="matrix" values="0 0 0 0 0 0 0 0 0 0 0 0 0 0 0 0 0 0 0.25 0"/>
<feBlend mode="normal" in2="BackgroundImageFix" result="effect1_dropShadow_1_291"/>
<feBlend mode="normal" in="SourceGraphic" in2="effect1_dropShadow_1_291" result="shape"/>
</filter>
</defs>
</svg>
